<svg width="14" height="13" viewBox="0 0 14 13" fill="none" xmlns="http://www.w3.org/2000/svg">
<path d="M6 2.5H12.5M6 2.5C6 2.76522 5.89464 3.01957 5.70711 3.20711C5.51957 3.39464 5.26522 3.5 5 3.5C4.73478 3.5 4.48043 3.39464 4.29289 3.20711C4.10536 3.01957 4 2.76522 4 2.5M6 2.5C6 2.23478 5.89464 1.98043 5.70711 1.79289C5.51957 1.60536 5.26522 1.5 5 1.5C4.73478 1.5 4.48043 1.60536 4.29289 1.79289C4.10536 1.98043 4 2.23478 4 2.5M4 2.5H1.5M6 10.5H12.5M6 10.5C6 10.7652 5.89464 11.0196 5.70711 11.2071C5.51957 11.3946 5.26522 11.5 5 11.5C4.73478 11.5 4.48043 11.3946 4.29289 11.2071C4.10536 11.0196 4 10.7652 4 10.5M6 10.5C6 10.2348 5.89464 9.98043 5.70711 9.79289C5.51957 9.60536 5.26522 9.5 5 9.5C4.73478 9.5 4.48043 9.60536 4.29289 9.79289C4.10536 9.98043 4 10.2348 4 10.5M4 10.5H1.5M10 6.5H12.5M10 6.5C10 6.76522 9.89464 7.01957 9.70711 7.20711C9.51957 7.39464 9.26522 7.5 9 7.5C8.73478 7.5 8.48043 7.39464 8.29289 7.20711C8.10536 7.01957 8 6.76522 8 6.5M10 6.5C10 6.23478 9.89464 5.98043 9.70711 5.79289C9.51957 5.60536 9.26522 5.5 9 5.5C8.73478 5.5 8.48043 5.60536 8.29289 5.79289C8.10536 5.98043 8 6.23478 8 6.5M8 6.5H1.5" stroke="black" stroke-width="1.5" stroke-linecap="round" stroke-linejoin="round"/>
</svg>

